# AST/ASF file generated using VICON BodyLanguage
# -----------------------------------------------
:version 1.10
:name VICON
:units
  mass 1.0
  length 0.45
  angle deg
:documentation
   .ast/.asf automatically generated from VICON data using
   VICON BodyBuilder and BodyLanguage model FoxedUp or BRILLIANT.MOD
:root
   order TX TY TZ RX RY RZ
   axis XYZ
   position 0 0 0  
   orientation 0 0 0 
:bonedata
  begin
     id 1 
     name lhipjoint
     direction 0.54267 -0.795011 0.271047 
     length 2.39899 
     axis 0 0 0  XYZ
  end
  begin
     id 2 
     name lfemur
     direction 0.34202 -0.939693 0  
     length 7.49701  
     axis 0 0 20  XYZ
    dof rx ry rz
    limits (-160.0 20.0)
           (-70.0 70.0)
           (-60.0 70.0)
  end
  begin
     id 3 
     name ltibia
     direction 0.34202 -0.939693 0   
     length 8.1668   
     axis 0 0 20   XYZ
    dof rx
    limits (-10.0 170.0)
  end
  begin
     id 4 
     name lfoot
     direction 0.0736283 -0.202292 0.976554   
     length 2.13544   
     axis -90 7.62852e-016 20   XYZ
    dof rx rz
    limits (-45.0 90.0)
           (-70.0 20.0)
  end
  begin
     id 5 
     name ltoes
     direction 1.53557e-011 -4.22024e-011 1   
     length 1.07411   
     axis -90 7.62852e-016 20   XYZ
    dof rx
    limits (-90.0 20.0)
  end
  begin
     id 6 
     name rhipjoint
     direction -0.538061 -0.797813 0.272002   
     length 2.39057  
     axis 0 0 0  XYZ 
  end
  begin
     id 7 
     name rfemur
     direction -0.34202 -0.939693 0   
     length 7.50152   
     axis 0 0 -20   XYZ
    dof rx ry rz
    limits (-160.0 20.0)
           (-70.0 70.0)
           (-70.0 60.0)
  end
  begin
     id 8 
     name rtibia
     direction -0.34202 -0.939693 0   
     length 8.05793   
     axis 0 0 -20   XYZ
    dof rx
    limits (-10.0 170.0)
 end
 begin
     id 9 
     name rfoot
     direction -0.0765195 -0.210236 0.974652   
     length 2.28698  
     axis -90 -7.62852e-016 -20   XYZ
    dof rx rz
    limits (-45.0 90.0)
           (-20.0 70.0)
  end
  begin
     id 10 
     name rtoes
     direction -1.53542e-011 -4.21847e-011 1   
     length 1.14762   
     axis -90 -7.62852e-016 -20   XYZ
    dof rx
    limits (-90.0 20.0)
  end
  begin
     id 11 
     name lowerback
     direction -0.0217239 0.996592 -0.0795765   
     length 2.08176   
     axis 0 0 0   XYZ
    dof rx ry rz
    limits (-20.0 45.0)
           (-30.0 30.0)
           (-30.0 30.0)
  end
  begin
     id 12 
     name upperback
     direction -0.00563773 0.999651 -0.0258155   
     length 2.08898   
     axis 0 0 0   XYZ
    dof rx ry rz
    limits (-20.0 45.0)
           (-30.0 30.0)
           (-30.0 30.0)
  end
  begin
     id 13 
     name thorax
     direction 0.0032706 0.999923 0.0119599   
     length 2.0968   
     axis 0 0 0   XYZ
    dof rx ry rz
    limits (-20.0 45.0)
           (-30.0 30.0)
           (-30.0 30.0)
  end
  begin
     id 14 
     name lowerneck
     direction -0.0285886 0.99568 0.0883427   
     length 1.81272   
     axis 0 0 0   XYZ
    dof rx ry rz
    limits (-20.0 45.0)
           (-30.0 30.0)
           (-30.0 30.0)
  end
  begin
     id 15 
     name upperneck
     direction 0.0807535 0.97985 -0.18268   
     length 1.82518   
     axis 0 0 0   XYZ
    dof rx ry rz
    limits (-20.0 45.0)
           (-30.0 30.0)
           (-30.0 30.0)
  end
  begin
     id 16
     name head
     direction 0.0236605 0.997053 -0.0729767  
     length 1.84443  
     axis 0 0 0   XYZ
    dof rx ry rz
    limits (-20.0 45.0)
           (-30.0 30.0)
           (-30.0 30.0)
  end
  begin
     id 17 
     name lclavicle
     direction 0.918986 0.39378 -0.0200683  
     length 3.27822  
     axis 0 0 0   XYZ
    dof ry rz
    limits (-20.0 10.0)
           (0.0 20.0)
  end
  begin
     id 18 
     name lhumerus
     direction 1 -4.4897e-011 2.09544e-027   
     length 5.5568   
     axis 180 -30 -90   XYZ
    dof rx ry rz
    limits (-60.0 90.0)
           (-90.0 90.0)
           (-90.0 90.0)
  end
  begin
     id 19
     name lradius
     direction 1 -4.48957e-011 -1.27696e-026   
     length 3.63979   
     axis 180 -30 -90   XYZ
    dof rx
    limits (-10.0 170.0)
  end
  begin
     id 20
     name lwrist
     direction 1 -4.49001e-011 -1.49001e-026   
     length 1.8199   
     axis 9.0955e-015 90 90   XYZ
    dof ry
    limits (-180.0 0.0)
 end
  begin
     id 21 
     name lhand
     direction 1 -4.48709e-011 -2.9758e-026   
     length 0.569419   
     axis 1.90115e-014 90 90   XYZ
    dof rx rz
    limits (-90.0 90.0)
           (-45.0 45.0)
  end
  begin
     id 22 
     name lfingers
     direction 1 -4.49175e-011 -5.96505e-026   
     length 0.45908   
     axis 3.80223e-014 90 90   XYZ
    dof rx
    limits (0.0 90.0)
  end
  begin
     id 23
     name lthumb
     direction 0.707107 -6.34864e-011 0.707107   
     length 0.65915   
     axis -90 45 -3.84942e-014   XYZ
    dof rx rz
    limits (-45.0 45.0)
           (-45.0 45.0)
  end
  begin
     id 24 
     name rclavicle
     direction -0.911913 0.396426 -0.106115   
     length 3.46301  
     axis 0 0 0   XYZ 
    dof ry rz
    limits (-10.0 20.0)
           (-20.0 0.0)
  end
  begin
     id 25 
     name rhumerus
     direction -1 -4.48965e-011 7.78516e-028  
     length 5.34339   
     axis 180 30 90   XYZ
    dof rx ry rz
    limits (-90.0 60.0)
           (-90.0 90.0)
           (-90.0 90.0)
  end
  begin
     id 26 
     name rradius
     direction -1 -4.48948e-011 -5.79823e-027   
     length 3.65101   
     axis 180 30 90   XYZ
    dof rx
    limits (-10.0 170.0)
  end
  begin
     id 27 
     name rwrist
     direction -1 -4.48995e-011 -1.48996e-026   
     length 1.8255   
     axis 9.0955e-015 -90 -90   XYZ
    dof ry
    limits (-180.0 0.0)
  end
  begin
     id 28
     name rhand
     direction -1 -4.48957e-011 -2.97937e-026   
     length 0.694249   
     axis 1.90115e-014 -90 -90   XYZ
    dof rx rz
    limits (-90.0 90.0)
           (-45.0 45.0)
  end
  begin
     id 29
     name rfingers
     direction -1 -4.4898e-011 -5.95943e-026   
     length 0.559721   
     axis 3.80223e-014 -90 -90   XYZ
    dof rx
    limits (0.0 90.0)
  end
  begin
     id 30
     name rthumb
     direction -0.707107 -6.34969e-011 0.707107   
     length 0.803651   
     axis -90 -45 3.84942e-014   XYZ
    dof rx rz
    limits (-45.0 45.0)
           (-45.0 45.0)
  end
:hierarchy
  begin
    root lhipjoint rhipjoint lowerback
    lhipjoint lfemur
    lfemur ltibia
    ltibia lfoot
    lfoot ltoes
    rhipjoint rfemur
    rfemur rtibia
    rtibia rfoot
    rfoot rtoes
    lowerback upperback
    upperback thorax
    thorax lowerneck lclavicle rclavicle
    lowerneck upperneck
    upperneck head
    lclavicle lhumerus
    lhumerus lradius
    lradius lwrist
    lwrist lhand lthumb
    lhand lfingers
    rclavicle rhumerus
    rhumerus rradius
    rradius rwrist
    rwrist rhand rthumb
    rhand rfingers
  end

#!OML:ASF H:\Terrain\Walking\May29\JustinRory\rory.ASF
:FULLY-SPECIFIED
:DEGREES
206
root 12.1662 12.4329 2.23355 186.402 -46.863 175.613
lowerback 43.3705 5.45148 -2.93296
upperback 9.18217 2.3238 -4.55912
thorax -10.0792 0.188577 -4.27024
lowerneck 10.1797 24.1848 -3.74064
upperneck 3.26899 31.7886 -28.5227
head 3.70572 16.0098 -7.36891
rclavicle 7.55382e-015 -4.77083e-015
rhumerus 18.0343 20.3911 -53.0077
rradius 57.8007
rwrist 2.25456
rhand -8.18743 393.33
rfingers 7.12502
rthumb 17.7285 4.11834
lclavicle 7.55382e-015 -4.77083e-015
lhumerus 20.1401 -4.03346 82.9659
lradius 63.3956
lwrist 2.11587
lhand -13.4602 25.9512
lfingers 7.12502
lthumb 12.6495 55.5482
rfemur -59.7478 -12.7022 -4.03139
rtibia 102.713
rfoot -27.8669 -17.172
rtoes -4.30245
lfemur -70.4477 8.32365 -2.90709
ltibia 95.0178
lfoot -16.1621 -26.9027
ltoes -8.7056
207
root 12.1969 12.5029 2.15403 186.64 -47.0992 175.259
lowerback 43.1869 5.8291 -3.2781
upperback 9.22617 2.68114 -4.40993
thorax -9.9668 0.355611 -4.08168
lowerneck 9.26239 23.8581 -3.77311
upperneck 4.18009 31.6703 -27.9253
head 4.00315 15.7585 -7.04434
rclavicle 2.14687e-014 -2.0276e-014
rhumerus 17.1519 20.9131 -52.8745
rradius 59.1937
rwrist 2.11517
rhand -7.47472 393.037
rfingers 7.12502
rthumb 18.4142 3.88878
lclavicle 2.14687e-014 -2.0276e-014
lhumerus 19.8575 -4.82556 83.6319
lradius 63.5856
lwrist 2.0301
lhand -13.4357 25.9176
lfingers 7.12502
lthumb 12.6732 55.5131
rfemur -59.2134 -12.8463 -3.90314
rtibia 102.367
rfoot -28.1691 -16.9802
rtoes -2.86149
lfemur -69.7422 7.85843 -2.82818
ltibia 94.217
lfoot -16.2107 -26.6367
ltoes -9.18331
208
root 12.2175 12.5799 2.09611 186.909 -47.6217 174.843
lowerback 43.1429 5.86267 -3.23641
upperback 9.27777 2.76258 -4.3668
thorax -9.8911 0.396711 -4.08942
lowerneck 8.1906 23.8142 -3.48366
upperneck 5.41404 32.1012 -27.639
head 4.61696 15.7322 -6.73087
rclavicle 3.51849e-014 -1.8487e-014
rhumerus 16.2545 21.353 -52.8224
rradius 60.647
rwrist 1.85021
rhand -6.45179 393.434
rfingers 7.12502
rthumb 19.398 4.38201
lclavicle 3.51849e-014 -1.8487e-014
lhumerus 19.4875 -5.57167 84.045
lradius 63.8722
lwrist 2.01482
lhand -13.7525 26.1637
lfingers 7.12502
lthumb 12.3677 55.7779
rfemur -58.2916 -13.3904 -3.94121
rtibia 101.931
rfoot -28.5693 -16.786
rtoes -1.77913
lfemur -69.1184 6.90509 -2.8668
ltibia 93.4054
lfoot -16.6215 -26.1341
ltoes -10.8281
209
root 12.2415 12.6563 2.02126 187.068 -47.9808 174.653
lowerback 42.9697 6.01787 -3.33909
upperback 9.25898 2.95794 -4.29187
thorax -9.85696 0.495625 -4.03706
lowerneck 7.14178 23.9514 -2.91473
upperneck 7.13439 32.9035 -27.4006
head 5.50031 15.8318 -6.3883
rclavicle 3.29983e-014 -8.24956e-014
rhumerus 15.2163 22.0615 -52.7582
rradius 62.1518
rwrist 1.14904
rhand -6.39446 393.422
rfingers 7.12502
rthumb 19.4531 4.37476
lclavicle 3.29983e-014 -8.24956e-014
lhumerus 18.8549 -6.19017 84.7982
lradius 64.2203
lwrist 1.64288
lhand -13.4281 26.0975
lfingers 7.12502
lthumb 12.6805 55.6925
rfemur -57.5486 -13.7579 -3.66937
rtibia 101.561
rfoot -29.0666 -16.7964
rtoes -2.12489
lfemur -68.4471 6.24371 -2.70909
ltibia 92.5084
lfoot -16.9391 -25.7433
ltoes -12.1616
210
root 12.2707 12.7404 1.92766 186.98 -48.1434 174.64
lowerback 42.7654 6.39154 -3.62969
upperback 9.26198 3.34543 -4.13013
thorax -9.7894 0.677572 -3.87543
lowerneck 5.60449 24.2457 -1.95703
upperneck 9.93425 34.245 -26.9272
head 6.94283 16.0266 -5.82125
rclavicle -3.75703e-014 7.33515e-014
rhumerus 14.1833 22.8641 -52.7619
rradius 63.4386
rwrist 0.674984
rhand -6.89481 393.521
rfingers 7.12502
rthumb 18.972 4.42617
lclavicle -3.75703e-014 7.33515e-014
lhumerus 18.1059 -6.93482 85.5251
lradius 64.7531
lwrist 1.24771
lhand -12.9258 26.3359
lfingers 7.12502
lthumb 13.1647 55.9003
rfemur -56.7944 -13.6532 -3.18355
rtibia 101.121
rfoot -29.4788 -16.9924
rtoes -2.59831
lfemur -67.4826 5.84362 -2.34895
ltibia 91.5303
lfoot -17.5187 -25.2754
ltoes -14.847
211
root 12.3137 12.8344 1.83643 186.571 -48.267 174.829
lowerback 42.9328 6.85269 -3.87457
upperback 9.21024 3.83247 -3.86328
thorax -9.89564 0.896543 -3.68281
lowerneck 6.66883 23.2286 -0.934041
upperneck 8.20833 32.6004 -28.5266
head 6.40265 15.4948 -6.77579
rclavicle -1.78906e-014 -2.98177e-015
rhumerus 13.0847 23.5099 -52.7834
rradius 64.7195
rwrist 0.548365
rhand -6.92712 393.815
rfingers 7.12502
rthumb 18.9409 4.71695
lclavicle -1.78906e-014 -2.98177e-015
lhumerus 17.6049 -7.6594 86.6756
lradius 64.7698
lwrist 0.471249
lhand -13.2936 26.5201
lfingers 7.12502
lthumb 12.8101 56.1071
rfemur -55.932 -13.1731 -2.51022
rtibia 100.58
rfoot -29.8306 -17.18
rtoes -0.565666
lfemur -66.3157 5.50408 -1.79776
ltibia 90.4555
lfoot -18.064 -24.7476
ltoes -17.9702
212
root 12.3617 12.9359 1.75331 185.947 -48.47 175.356
lowerback 43.1983 7.18526 -3.82956
upperback 9.11675 4.2894 -3.58429
thorax -10.0737 1.10184 -3.61918
lowerneck 6.14792 23.0077 -0.820245
upperneck 8.80246 32.497 -28.1853
head 6.61644 15.3301 -6.61716
rclavicle 3.04141e-014 2.76311e-014
rhumerus 11.8689 24.1367 -52.768
rradius 66.2022
rwrist 0.398625
rhand -7.02147 393.68
rfingers 7.12502
rthumb 18.8502 4.57381
lclavicle 3.04141e-014 2.76311e-014
lhumerus 17.4774 -7.90143 89.4137
lradius 63.745
lwrist -1.73212
lhand -14.0706 25.802
lfingers 7.12502
lthumb 12.061 55.4345
rfemur -55.0627 -12.5931 -1.55976
rtibia 99.9551
rfoot -30.2237 -17.473
rtoes 2.15572
lfemur -65.195 5.0256 -0.988091
ltibia 89.2946
lfoot -17.8978 -24.4728
ltoes -17.9747
213
root 12.402 13.0392 1.66991 185.803 -48.7185 175.345
lowerback 43.1542 7.48299 -3.98668
upperback 9.15447 4.61395 -3.43682
thorax -10.0221 1.24877 -3.51954
lowerneck 5.45508 22.8056 -0.767648
upperneck 9.48087 32.4357 -27.6696
head 6.85091 15.1686 -6.37338
rclavicle -6.37105e-014 6.31141e-014
rhumerus 10.7339 24.5932 -52.9779
rradius 67.5333
rwrist 0.187609
rhand -6.95188 393.676
rfingers 7.12502
rthumb 18.9171 4.57598
lclavicle -6.37105e-014 6.31141e-014
lhumerus 16.8443 -8.09819 91.2008
lradius 63.6298
lwrist -3.01782
lhand -14.5362 25.2827
lfingers 7.12502
lthumb 11.612 54.941
rfemur -54.2138 -12.402 -1.04178
rtibia 99.2817
rfoot -30.4211 -17.9255
rtoes 2.69988
lfemur -64.1029 4.21466 -0.569545
ltibia 88.0829
lfoot -17.3357 -24.331
ltoes -15.2731
214
root 12.4186 13.1331 1.60019 186.973 -49.1867 173.814
lowerback 42.7116 7.65209 -4.57397
upperback 9.34007 4.58737 -3.55984
thorax -9.70238 1.24444 -3.31721
lowerneck 4.9178 22.5872 -0.336012
upperneck 10.1671 32.4156 -27.6039
head 7.22194 15.0343 -6.3045
rclavicle 1.70458e-014 4.86525e-014
rhumerus 9.66518 24.9526 -53.2825
rradius 68.6545
rwrist -0.00707018
rhand -6.57365 393.92
rfingers 7.12502
rthumb 19.2808 4.85562
lclavicle 1.70458e-014 4.86525e-014
lhumerus 15.8405 -8.64336 91.0161
lradius 64.5944
lwrist -2.29082
lhand -14.3437 25.3769
lfingers 7.12502
lthumb 11.7977 55.0246
rfemur -53.3631 -13.1936 -1.94424
rtibia 98.6119
rfoot -30.5653 -17.599
rtoes 2.29173
lfemur -63.3489 2.70613 -1.35024
ltibia 86.9123
lfoot -17.0104 -23.7827
ltoes -13.029
